<svg width="30" height="30" viewBox="0 0 30 30" fill="none" xmlns="http://www.w3.org/2000/svg">
<g id="Group 175">
<path id="Rectangle 50" d="M0 15C0 6.71573 6.71573 0 15 0C23.2843 0 30 6.71573 30 15C30 23.2843 23.2843 30 15 30H0V15Z" fill="#0156FF"/>
<path id="Star 12" d="M14.7012 9.4181C14.7711 9.25845 14.9976 9.25845 15.0676 9.4181L16.7009 13.146C16.73 13.2122 16.7925 13.2576 16.8644 13.2648L20.9146 13.6662C21.0881 13.6834 21.1581 13.8988 21.0278 14.0147L17.9871 16.7201C17.9331 16.7682 17.9092 16.8416 17.9247 16.9123L18.7945 20.8883C18.8317 21.0586 18.6485 21.1917 18.4981 21.1036L14.9854 19.0478C14.923 19.0112 14.8458 19.0112 14.7834 19.0478L11.2707 21.1036C11.1203 21.1917 10.9371 21.0586 10.9743 20.8883L11.8441 16.9123C11.8595 16.8416 11.8357 16.7682 11.7816 16.7201L8.74093 14.0147C8.61071 13.8988 8.68069 13.6834 8.85414 13.6662L12.9043 13.2648C12.9763 13.2576 13.0388 13.2122 13.0678 13.146L14.7012 9.4181Z" fill="white"/>
</g>
</svg>
